<svg width="143.537mm" height="89.273mm" viewBox="0 0 143.537 89.273" xmlns="http://www.w3.org/2000/svg"><g id="svgGroup" stroke-linecap="round" fill-rule="evenodd" font-size="9pt" stroke="#000" stroke-width="0.25mm" fill="none" style="stroke:#000;stroke-width:0.25mm;fill:none"><path d="M 0 89.273 L 143.537 89.273 L 143.537 0 L 0 0 L 0 89.273 Z M 129.545 71.304 L 142.102 74.668 A 0.5 0.5 0 0 1 142.455 75.281 L 139.091 87.838 A 0.5 0.5 0 0 1 138.478 88.191 L 125.921 84.827 A 0.5 0.5 0 0 1 125.568 84.214 L 128.932 71.657 A 0.5 0.5 0 0 1 129.545 71.304 Z M 109.304 65.88 L 121.861 69.245 A 0.5 0.5 0 0 1 122.214 69.857 L 118.85 82.414 A 0.5 0.5 0 0 1 118.237 82.768 L 105.68 79.403 A 0.5 0.5 0 0 1 105.327 78.791 L 108.691 66.234 A 0.5 0.5 0 0 1 109.304 65.88 Z M 98.275 7.288 L 111.275 7.288 A 0.5 0.5 0 0 1 111.775 7.788 L 111.775 20.788 A 0.5 0.5 0 0 1 111.275 21.288 L 98.275 21.288 A 0.5 0.5 0 0 1 97.775 20.788 L 97.775 7.788 A 0.5 0.5 0 0 1 98.275 7.288 Z M 22.075 9.764 L 35.075 9.764 A 0.5 0.5 0 0 1 35.575 10.264 L 35.575 23.264 A 0.5 0.5 0 0 1 35.075 23.764 L 22.075 23.764 A 0.5 0.5 0 0 1 21.575 23.264 L 21.575 10.264 A 0.5 0.5 0 0 1 22.075 9.764 Z M 60.175 21.575 L 73.175 21.575 A 0.5 0.5 0 0 1 73.675 22.075 L 73.675 35.075 A 0.5 0.5 0 0 1 73.175 35.575 L 60.175 35.575 A 0.5 0.5 0 0 1 59.675 35.075 L 59.675 22.075 A 0.5 0.5 0 0 1 60.175 21.575 Z M 41.125 24.052 L 54.125 24.052 A 0.5 0.5 0 0 1 54.625 24.552 L 54.625 37.552 A 0.5 0.5 0 0 1 54.125 38.052 L 41.125 38.052 A 0.5 0.5 0 0 1 40.625 37.552 L 40.625 24.552 A 0.5 0.5 0 0 1 41.125 24.052 Z M 79.225 24.052 L 92.225 24.052 A 0.5 0.5 0 0 1 92.725 24.552 L 92.725 37.552 A 0.5 0.5 0 0 1 92.225 38.052 L 79.225 38.052 A 0.5 0.5 0 0 1 78.725 37.552 L 78.725 24.552 A 0.5 0.5 0 0 1 79.225 24.052 Z M 22.075 28.814 L 35.075 28.814 A 0.5 0.5 0 0 1 35.575 29.314 L 35.575 42.314 A 0.5 0.5 0 0 1 35.075 42.814 L 22.075 42.814 A 0.5 0.5 0 0 1 21.575 42.314 L 21.575 29.314 A 0.5 0.5 0 0 1 22.075 28.814 Z M 22.075 47.864 L 35.075 47.864 A 0.5 0.5 0 0 1 35.575 48.364 L 35.575 61.364 A 0.5 0.5 0 0 1 35.075 61.864 L 22.075 61.864 A 0.5 0.5 0 0 1 21.575 61.364 L 21.575 48.364 A 0.5 0.5 0 0 1 22.075 47.864 Z M 41.125 5.002 L 54.125 5.002 A 0.5 0.5 0 0 1 54.625 5.502 L 54.625 18.502 A 0.5 0.5 0 0 1 54.125 19.002 L 41.125 19.002 A 0.5 0.5 0 0 1 40.625 18.502 L 40.625 5.502 A 0.5 0.5 0 0 1 41.125 5.002 Z M 79.225 5.002 L 92.225 5.002 A 0.5 0.5 0 0 1 92.725 5.502 L 92.725 18.502 A 0.5 0.5 0 0 1 92.225 19.002 L 79.225 19.002 A 0.5 0.5 0 0 1 78.725 18.502 L 78.725 5.502 A 0.5 0.5 0 0 1 79.225 5.002 Z M 98.275 26.338 L 111.275 26.338 A 0.5 0.5 0 0 1 111.775 26.838 L 111.775 39.838 A 0.5 0.5 0 0 1 111.275 40.338 L 98.275 40.338 A 0.5 0.5 0 0 1 97.775 39.838 L 97.775 26.838 A 0.5 0.5 0 0 1 98.275 26.338 Z M 60.175 40.625 L 73.175 40.625 A 0.5 0.5 0 0 1 73.675 41.125 L 73.675 54.125 A 0.5 0.5 0 0 1 73.175 54.625 L 60.175 54.625 A 0.5 0.5 0 0 1 59.675 54.125 L 59.675 41.125 A 0.5 0.5 0 0 1 60.175 40.625 Z M 41.125 43.102 L 54.125 43.102 A 0.5 0.5 0 0 1 54.625 43.602 L 54.625 56.602 A 0.5 0.5 0 0 1 54.125 57.102 L 41.125 57.102 A 0.5 0.5 0 0 1 40.625 56.602 L 40.625 43.602 A 0.5 0.5 0 0 1 41.125 43.102 Z M 79.225 43.102 L 92.225 43.102 A 0.5 0.5 0 0 1 92.725 43.602 L 92.725 56.602 A 0.5 0.5 0 0 1 92.225 57.102 L 79.225 57.102 A 0.5 0.5 0 0 1 78.725 56.602 L 78.725 43.602 A 0.5 0.5 0 0 1 79.225 43.102 Z M 98.275 45.388 L 111.275 45.388 A 0.5 0.5 0 0 1 111.775 45.888 L 111.775 58.888 A 0.5 0.5 0 0 1 111.275 59.388 L 98.275 59.388 A 0.5 0.5 0 0 1 97.775 58.888 L 97.775 45.888 A 0.5 0.5 0 0 1 98.275 45.388 Z M 83.988 65.39 L 96.988 65.39 A 0.5 0.5 0 0 1 97.488 65.89 L 97.488 78.89 A 0.5 0.5 0 0 1 96.988 79.39 L 83.988 79.39 A 0.5 0.5 0 0 1 83.488 78.89 L 83.488 65.89 A 0.5 0.5 0 0 1 83.988 65.39 Z M 60.175 2.525 L 73.175 2.525 A 0.5 0.5 0 0 1 73.675 3.025 L 73.675 16.025 A 0.5 0.5 0 0 1 73.175 16.525 L 60.175 16.525 A 0.5 0.5 0 0 1 59.675 16.025 L 59.675 3.025 A 0.5 0.5 0 0 1 60.175 2.525 Z M 3.025 7.288 L 16.025 7.288 A 0.5 0.5 0 0 1 16.525 7.788 L 16.525 20.788 A 0.5 0.5 0 0 1 16.025 21.288 L 3.025 21.288 A 0.5 0.5 0 0 1 2.525 20.788 L 2.525 7.788 A 0.5 0.5 0 0 1 3.025 7.288 Z M 3.025 26.338 L 16.025 26.338 A 0.5 0.5 0 0 1 16.525 26.838 L 16.525 39.838 A 0.5 0.5 0 0 1 16.025 40.338 L 3.025 40.338 A 0.5 0.5 0 0 1 2.525 39.838 L 2.525 26.838 A 0.5 0.5 0 0 1 3.025 26.338 Z" vector-effect="non-scaling-stroke"/></g></svg>