0
SECTION
2
HEADER
9
$INSUNITS
70
4
0
ENDSEC
0
SECTION
2
TABLES
0
TABLE
2
LTYPE
0
LTYPE
72
65
70
64
2
CONTINUOUS
3
______
73
0
40
0
0
ENDTAB
0
TABLE
2
LAYER
0
ENDTAB
0
ENDSEC
0
SECTION
2
ENTITIES
0
LINE
8
0
10
60.175
20
-2.525
11
73.175
21
-2.525
0
LINE
8
0
10
60.175
20
-16.525
11
73.175
21
-16.525
0
LINE
8
0
10
59.675
20
-3.025
11
59.675
21
-16.025
0
LINE
8
0
10
73.675
20
-3.025
11
73.675
21
-16.025
0
ARC
8
0
10
60.175
20
-3.025
40
0.5
50
90
51
180
0
ARC
8
0
10
73.175
20
-3.025
40
0.5
50
0
51
90
0
ARC
8
0
10
60.175
20
-16.025
40
0.5
50
180
51
270
0
ARC
8
0
10
73.175
20
-16.025
40
0.5
50
270
51
0
0
LINE
8
0
10
41.125
20
-5.0015
11
54.125
21
-5.0015
0
LINE
8
0
10
41.125
20
-19.0015
11
54.125
21
-19.0015
0
LINE
8
0
10
40.625
20
-5.5015
11
40.625
21
-18.5015
0
LINE
8
0
10
54.625
20
-5.5015
11
54.625
21
-18.5015
0
ARC
8
0
10
41.125
20
-5.5015
40
0.5
50
90
51
180
0
ARC
8
0
10
54.125
20
-5.5015
40
0.5
50
0
51
90
0
ARC
8
0
10
41.125
20
-18.5015
40
0.5
50
180
51
270
0
ARC
8
0
10
54.125
20
-18.5015
40
0.5
50
270
51
0
0
LINE
8
0
10
79.225
20
-5.0015
11
92.225
21
-5.0015
0
LINE
8
0
10
79.225
20
-19.0015
11
92.225
21
-19.0015
0
LINE
8
0
10
78.725
20
-5.5015
11
78.725
21
-18.5015
0
LINE
8
0
10
92.725
20
-5.5015
11
92.725
21
-18.5015
0
ARC
8
0
10
79.225
20
-5.5015
40
0.5
50
90
51
180
0
ARC
8
0
10
92.225
20
-5.5015
40
0.5
50
0
51
90
0
ARC
8
0
10
79.225
20
-18.5015
40
0.5
50
180
51
270
0
ARC
8
0
10
92.225
20
-18.5015
40
0.5
50
270
51
0
0
LINE
8
0
10
3.025
20
-7.2875
11
16.025
21
-7.2875
0
LINE
8
0
10
3.025
20
-21.2875
11
16.025
21
-21.2875
0
LINE
8
0
10
2.525
20
-7.7875
11
2.525
21
-20.7875
0
LINE
8
0
10
16.525
20
-7.7875
11
16.525
21
-20.7875
0
ARC
8
0
10
3.025
20
-7.7875
40
0.5
50
90
51
180
0
ARC
8
0
10
16.025
20
-7.7875
40
0.5
50
0
51
90
0
ARC
8
0
10
3.025
20
-20.7875
40
0.5
50
180
51
270
0
ARC
8
0
10
16.025
20
-20.7875
40
0.5
50
270
51
0
0
LINE
8
0
10
98.275
20
-7.2875
11
111.275
21
-7.2875
0
LINE
8
0
10
98.275
20
-21.2875
11
111.275
21
-21.2875
0
LINE
8
0
10
97.775
20
-7.7875
11
97.775
21
-20.7875
0
LINE
8
0
10
111.775
20
-7.7875
11
111.775
21
-20.7875
0
ARC
8
0
10
98.275
20
-7.7875
40
0.5
50
90
51
180
0
ARC
8
0
10
111.275
20
-7.7875
40
0.5
50
0
51
90
0
ARC
8
0
10
98.275
20
-20.7875
40
0.5
50
180
51
270
0
ARC
8
0
10
111.275
20
-20.7875
40
0.5
50
270
51
0
0
LINE
8
0
10
22.075
20
-9.764
11
35.075
21
-9.764
0
LINE
8
0
10
22.075
20
-23.764
11
35.075
21
-23.764
0
LINE
8
0
10
21.575
20
-10.264
11
21.575
21
-23.264
0
LINE
8
0
10
35.575
20
-10.264
11
35.575
21
-23.264
0
ARC
8
0
10
22.075
20
-10.264
40
0.5
50
90
51
180
0
ARC
8
0
10
35.075
20
-10.264
40
0.5
50
0
51
90
0
ARC
8
0
10
22.075
20
-23.264
40
0.5
50
180
51
270
0
ARC
8
0
10
35.075
20
-23.264
40
0.5
50
270
51
0
0
LINE
8
0
10
60.175
20
-21.575
11
73.175
21
-21.575
0
LINE
8
0
10
60.175
20
-35.575
11
73.175
21
-35.575
0
LINE
8
0
10
59.675
20
-22.075
11
59.675
21
-35.075
0
LINE
8
0
10
73.675
20
-22.075
11
73.675
21
-35.075
0
ARC
8
0
10
60.175
20
-22.075
40
0.5
50
90
51
180
0
ARC
8
0
10
73.175
20
-22.075
40
0.5
50
0
51
90
0
ARC
8
0
10
60.175
20
-35.075
40
0.5
50
180
51
270
0
ARC
8
0
10
73.175
20
-35.075
40
0.5
50
270
51
0
0
LINE
8
0
10
41.125
20
-24.0515
11
54.125
21
-24.0515
0
LINE
8
0
10
41.125
20
-38.0515
11
54.125
21
-38.0515
0
LINE
8
0
10
40.625
20
-24.5515
11
40.625
21
-37.5515
0
LINE
8
0
10
54.625
20
-24.5515
11
54.625
21
-37.5515
0
ARC
8
0
10
41.125
20
-24.5515
40
0.5
50
90
51
180
0
ARC
8
0
10
54.125
20
-24.5515
40
0.5
50
0
51
90
0
ARC
8
0
10
41.125
20
-37.5515
40
0.5
50
180
51
270
0
ARC
8
0
10
54.125
20
-37.5515
40
0.5
50
270
51
0
0
LINE
8
0
10
79.225
20
-24.0515
11
92.225
21
-24.0515
0
LINE
8
0
10
79.225
20
-38.0515
11
92.225
21
-38.0515
0
LINE
8
0
10
78.725
20
-24.5515
11
78.725
21
-37.5515
0
LINE
8
0
10
92.725
20
-24.5515
11
92.725
21
-37.5515
0
ARC
8
0
10
79.225
20
-24.5515
40
0.5
50
90
51
180
0
ARC
8
0
10
92.225
20
-24.5515
40
0.5
50
0
51
90
0
ARC
8
0
10
79.225
20
-37.5515
40
0.5
50
180
51
270
0
ARC
8
0
10
92.225
20
-37.5515
40
0.5
50
270
51
0
0
LINE
8
0
10
3.025
20
-26.3375
11
16.025
21
-26.3375
0
LINE
8
0
10
3.025
20
-40.3375
11
16.025
21
-40.3375
0
LINE
8
0
10
2.525
20
-26.8375
11
2.525
21
-39.8375
0
LINE
8
0
10
16.525
20
-26.8375
11
16.525
21
-39.8375
0
ARC
8
0
10
3.025
20
-26.8375
40
0.5
50
90
51
180
0
ARC
8
0
10
16.025
20
-26.8375
40
0.5
50
0
51
90
0
ARC
8
0
10
3.025
20
-39.8375
40
0.5
50
180
51
270
0
ARC
8
0
10
16.025
20
-39.8375
40
0.5
50
270
51
0
0
LINE
8
0
10
98.275
20
-26.3375
11
111.275
21
-26.3375
0
LINE
8
0
10
98.275
20
-40.3375
11
111.275
21
-40.3375
0
LINE
8
0
10
97.775
20
-26.8375
11
97.775
21
-39.8375
0
LINE
8
0
10
111.775
20
-26.8375
11
111.775
21
-39.8375
0
ARC
8
0
10
98.275
20
-26.8375
40
0.5
50
90
51
180
0
ARC
8
0
10
111.275
20
-26.8375
40
0.5
50
0
51
90
0
ARC
8
0
10
98.275
20
-39.8375
40
0.5
50
180
51
270
0
ARC
8
0
10
111.275
20
-39.8375
40
0.5
50
270
51
0
0
LINE
8
0
10
22.075
20
-28.814
11
35.075
21
-28.814
0
LINE
8
0
10
22.075
20
-42.814
11
35.075
21
-42.814
0
LINE
8
0
10
21.575
20
-29.314
11
21.575
21
-42.314
0
LINE
8
0
10
35.575
20
-29.314
11
35.575
21
-42.314
0
ARC
8
0
10
22.075
20
-29.314
40
0.5
50
90
51
180
0
ARC
8
0
10
35.075
20
-29.314
40
0.5
50
0
51
90
0
ARC
8
0
10
22.075
20
-42.314
40
0.5
50
180
51
270
0
ARC
8
0
10
35.075
20
-42.314
40
0.5
50
270
51
0
0
LINE
8
0
10
60.175
20
-40.625
11
73.175
21
-40.625
0
LINE
8
0
10
60.175
20
-54.625
11
73.175
21
-54.625
0
LINE
8
0
10
59.675
20
-41.125
11
59.675
21
-54.125
0
LINE
8
0
10
73.675
20
-41.125
11
73.675
21
-54.125
0
ARC
8
0
10
60.175
20
-41.125
40
0.5
50
90
51
180
0
ARC
8
0
10
73.175
20
-41.125
40
0.5
50
0
51
90
0
ARC
8
0
10
60.175
20
-54.125
40
0.5
50
180
51
270
0
ARC
8
0
10
73.175
20
-54.125
40
0.5
50
270
51
0
0
LINE
8
0
10
41.125
20
-43.1015
11
54.125
21
-43.1015
0
LINE
8
0
10
41.125
20
-57.1015
11
54.125
21
-57.1015
0
LINE
8
0
10
40.625
20
-43.6015
11
40.625
21
-56.6015
0
LINE
8
0
10
54.625
20
-43.6015
11
54.625
21
-56.6015
0
ARC
8
0
10
41.125
20
-43.6015
40
0.5
50
90
51
180
0
ARC
8
0
10
54.125
20
-43.6015
40
0.5
50
0
51
90
0
ARC
8
0
10
41.125
20
-56.6015
40
0.5
50
180
51
270
0
ARC
8
0
10
54.125
20
-56.6015
40
0.5
50
270
51
0
0
LINE
8
0
10
79.225
20
-43.1015
11
92.225
21
-43.1015
0
LINE
8
0
10
79.225
20
-57.1015
11
92.225
21
-57.1015
0
LINE
8
0
10
78.725
20
-43.6015
11
78.725
21
-56.6015
0
LINE
8
0
10
92.725
20
-43.6015
11
92.725
21
-56.6015
0
ARC
8
0
10
79.225
20
-43.6015
40
0.5
50
90
51
180
0
ARC
8
0
10
92.225
20
-43.6015
40
0.5
50
0
51
90
0
ARC
8
0
10
79.225
20
-56.6015
40
0.5
50
180
51
270
0
ARC
8
0
10
92.225
20
-56.6015
40
0.5
50
270
51
0
0
LINE
8
0
10
98.275
20
-45.3875
11
111.275
21
-45.3875
0
LINE
8
0
10
98.275
20
-59.3875
11
111.275
21
-59.3875
0
LINE
8
0
10
97.775
20
-45.8875
11
97.775
21
-58.8875
0
LINE
8
0
10
111.775
20
-45.8875
11
111.775
21
-58.8875
0
ARC
8
0
10
98.275
20
-45.8875
40
0.5
50
90
51
180
0
ARC
8
0
10
111.275
20
-45.8875
40
0.5
50
0
51
90
0
ARC
8
0
10
98.275
20
-58.8875
40
0.5
50
180
51
270
0
ARC
8
0
10
111.275
20
-58.8875
40
0.5
50
270
51
0
0
LINE
8
0
10
22.075
20
-47.864
11
35.075
21
-47.864
0
LINE
8
0
10
22.075
20
-61.864
11
35.075
21
-61.864
0
LINE
8
0
10
21.575
20
-48.364
11
21.575
21
-61.364
0
LINE
8
0
10
35.575
20
-48.364
11
35.575
21
-61.364
0
ARC
8
0
10
22.075
20
-48.364
40
0.5
50
90
51
180
0
ARC
8
0
10
35.075
20
-48.364
40
0.5
50
0
51
90
0
ARC
8
0
10
22.075
20
-61.364
40
0.5
50
180
51
270
0
ARC
8
0
10
35.075
20
-61.364
40
0.5
50
270
51
0
0
LINE
8
0
10
83.9875
20
-65.39
11
96.9875
21
-65.39
0
LINE
8
0
10
83.9875
20
-79.39
11
96.9875
21
-79.39
0
LINE
8
0
10
83.4875
20
-65.89
11
83.4875
21
-78.89
0
LINE
8
0
10
97.4875
20
-65.89
11
97.4875
21
-78.89
0
ARC
8
0
10
83.9875
20
-65.89
40
0.5
50
90
51
180
0
ARC
8
0
10
96.9875
20
-65.89
40
0.5
50
0
51
90
0
ARC
8
0
10
83.9875
20
-78.89
40
0.5
50
180
51
270
0
ARC
8
0
10
96.9875
20
-78.89
40
0.5
50
270
51
0
0
LINE
8
0
10
109.3037838
20
-65.8802163
11
121.8608196
21
-69.2448639
0
LINE
8
0
10
105.6803172
20
-79.4031779
11
118.237353
21
-82.7678255
0
LINE
8
0
10
108.6914114
20
-66.2337697
11
105.3267638
21
-78.7908055
0
LINE
8
0
10
122.214373
20
-69.8572363
11
118.8497254
21
-82.4142721
0
ARC
8
0
10
109.1743743
20
-66.3631792
40
0.5
50
75
51
165
0
ARC
8
0
10
121.7314101
20
-69.7278268
40
0.5
50
345
51
75
0
ARC
8
0
10
105.8097267
20
-78.920215
40
0.5
50
165
51
255
0
ARC
8
0
10
118.3667625
20
-82.2848626
40
0.5
50
255
51
345
0
LINE
8
0
10
129.5447595
20
-71.3037694
11
142.1017953
21
-74.668417
0
LINE
8
0
10
125.9212929
20
-84.826731
11
138.4783287
21
-88.1913786
0
LINE
8
0
10
128.9323871
20
-71.6573228
11
125.5677395
21
-84.2143586
0
LINE
8
0
10
142.4553487
20
-75.2807894
11
139.0907011
21
-87.8378252
0
ARC
8
0
10
129.41535
20
-71.7867323
40
0.5
50
75
51
165
0
ARC
8
0
10
141.9723858
20
-75.1513799
40
0.5
50
345
51
75
0
ARC
8
0
10
126.0507024
20
-84.3437681
40
0.5
50
165
51
255
0
ARC
8
0
10
138.6077382
20
-87.7084157
40
0.5
50
255
51
345
0
LINE
8
0
10
0
20
-89.272574
11
143.5365441
21
-89.272574
0
LINE
8
0
10
0
20
0
11
143.5365441
21
0
0
LINE
8
0
10
0
20
-89.272574
11
0
21
0
0
LINE
8
0
10
143.5365441
20
-89.272574
11
143.5365441
21
0
0
ENDSEC
0
EOF