<?xml version="1.0"?>
<!-- Generated by SVGo -->
<svg width="178.113mm" height="115.250mm"
     viewBox="0.000 0.000 178.113 115.250"
     xmlns="http://www.w3.org/2000/svg" 
     xmlns:xlink="http://www.w3.org/1999/xlink">
<polygon points="173.113,110.250 5.000,110.250 5.000,5.000 173.113,5.000" style="fill:none;stroke-width:0.050000mm;stroke:black"/>
<polygon points="119.681,88.725 119.681,93.425 118.156,93.425 118.156,90.195 116.431,90.195 116.431,89.274 113.131,89.274 113.131,90.195 111.406,90.195 111.406,93.425 110.581,93.425 110.581,96.225 111.406,96.225 111.406,102.494 113.131,102.494 113.131,103.475 116.431,103.475 116.431,102.494 118.156,102.494 118.156,98.024 119.681,98.024 119.681,102.725 133.681,102.725 133.681,98.024 135.206,98.024 135.206,102.494 136.931,102.494 136.931,103.475 140.231,103.475 140.231,102.494 141.956,102.494 141.956,96.225 142.781,96.225 142.781,93.425 141.956,93.425 141.956,90.195 140.231,90.195 140.231,89.274 136.931,89.274 136.931,90.195 135.206,90.195 135.206,93.425 133.681,93.425 133.681,88.725" style="fill:none;stroke-width:0.050000mm;stroke:black"/>
<polygon points="14.906,88.725 14.906,102.725 28.906,102.725 28.906,88.725" style="fill:none;stroke-width:0.050000mm;stroke:black"/>
<polygon points="38.718,88.725 38.718,102.725 52.718,102.725 52.718,88.725" style="fill:none;stroke-width:0.050000mm;stroke:black"/>
<polygon points="62.531,88.725 62.531,102.725 76.531,102.725 76.531,88.725" style="fill:none;stroke-width:0.050000mm;stroke:black"/>
<polygon points="86.343,88.725 86.343,102.725 100.343,102.725 100.343,88.725" style="fill:none;stroke-width:0.050000mm;stroke:black"/>
<polygon points="24.431,69.675 24.431,74.375 22.906,74.375 22.906,71.145 21.181,71.145 21.181,70.225 17.881,70.225 17.881,71.145 16.155,71.145 16.155,74.375 15.331,74.375 15.331,77.175 16.155,77.175 16.155,83.445 17.881,83.445 17.881,84.425 21.181,84.425 21.181,83.445 22.906,83.445 22.906,78.975 24.431,78.975 24.431,83.675 38.431,83.675 38.431,78.975 39.956,78.975 39.956,83.445 41.681,83.445 41.681,84.425 44.981,84.425 44.981,83.445 46.706,83.445 46.706,77.175 47.531,77.175 47.531,74.375 46.706,74.375 46.706,71.145 44.981,71.145 44.981,70.225 41.681,70.225 41.681,71.145 39.956,71.145 39.956,74.375 38.431,74.375 38.431,69.675" style="fill:none;stroke-width:0.050000mm;stroke:black"/>
<polygon points="55.387,69.675 55.387,83.675 69.387,83.675 69.387,69.675" style="fill:none;stroke-width:0.050000mm;stroke:black"/>
<polygon points="74.437,69.675 74.437,83.675 88.437,83.675 88.437,69.675" style="fill:none;stroke-width:0.050000mm;stroke:black"/>
<polygon points="93.487,69.675 93.487,83.675 107.487,83.675 107.487,69.675" style="fill:none;stroke-width:0.050000mm;stroke:black"/>
<polygon points="112.537,69.675 112.537,83.675 126.537,83.675 126.537,69.675" style="fill:none;stroke-width:0.050000mm;stroke:black"/>
<polygon points="131.587,69.675 131.587,83.675 145.587,83.675 145.587,69.675" style="fill:none;stroke-width:0.050000mm;stroke:black"/>
<polygon points="19.668,50.625 19.668,64.625 33.668,64.625 33.668,50.625" style="fill:none;stroke-width:0.050000mm;stroke:black"/>
<polygon points="45.862,50.625 45.862,64.625 59.862,64.625 59.862,50.625" style="fill:none;stroke-width:0.050000mm;stroke:black"/>
<polygon points="64.912,50.625 64.912,64.625 78.912,64.625 78.912,50.625" style="fill:none;stroke-width:0.050000mm;stroke:black"/>
<polygon points="83.962,50.625 83.962,64.625 97.962,64.625 97.962,50.625" style="fill:none;stroke-width:0.050000mm;stroke:black"/>
<polygon points="103.012,50.625 103.012,64.625 117.012,64.625 117.012,50.625" style="fill:none;stroke-width:0.050000mm;stroke:black"/>
<polygon points="122.062,50.625 122.062,64.625 136.062,64.625 136.062,50.625" style="fill:none;stroke-width:0.050000mm;stroke:black"/>
<polygon points="17.287,31.575 17.287,45.575 31.287,45.575 31.287,31.575" style="fill:none;stroke-width:0.050000mm;stroke:black"/>
<polygon points="41.100,31.575 41.100,45.575 55.100,45.575 55.100,31.575" style="fill:none;stroke-width:0.050000mm;stroke:black"/>
<polygon points="60.150,31.575 60.150,45.575 74.150,45.575 74.150,31.575" style="fill:none;stroke-width:0.050000mm;stroke:black"/>
<polygon points="79.200,31.575 79.200,45.575 93.200,45.575 93.200,31.575" style="fill:none;stroke-width:0.050000mm;stroke:black"/>
<polygon points="98.250,31.575 98.250,45.575 112.250,45.575 112.250,31.575" style="fill:none;stroke-width:0.050000mm;stroke:black"/>
<polygon points="117.300,31.575 117.300,45.575 131.300,45.575 131.300,31.575" style="fill:none;stroke-width:0.050000mm;stroke:black"/>
<polygon points="12.524,12.524 12.524,26.525 26.525,26.525 26.525,12.524" style="fill:none;stroke-width:0.050000mm;stroke:black"/>
<polygon points="31.575,12.524 31.575,26.525 45.575,26.525 45.575,12.524" style="fill:none;stroke-width:0.050000mm;stroke:black"/>
<polygon points="50.625,12.524 50.625,26.525 64.625,26.525 64.625,12.524" style="fill:none;stroke-width:0.050000mm;stroke:black"/>
<polygon points="69.675,12.524 69.675,26.525 83.675,26.525 83.675,12.524" style="fill:none;stroke-width:0.050000mm;stroke:black"/>
<polygon points="88.725,12.524 88.725,26.525 102.725,26.525 102.725,12.524" style="fill:none;stroke-width:0.050000mm;stroke:black"/>
<polygon points="107.774,12.524 107.774,26.525 121.774,26.525 121.774,12.524" style="fill:none;stroke-width:0.050000mm;stroke:black"/>
<polygon points="126.824,12.524 126.824,26.525 140.825,26.525 140.825,12.524" style="fill:none;stroke-width:0.050000mm;stroke:black"/>
</svg>
