<?xml version="1.0"?>
<!-- Generated by SVGo -->
<svg width="190.977mm" height="105.252mm"
     viewBox="0.000 0.000 190.977 105.252"
     xmlns="http://www.w3.org/2000/svg" 
     xmlns:xlink="http://www.w3.org/1999/xlink">
<polygon points="185.977,100.251 5.001,100.251 5.001,5.001 185.977,5.001" style="fill:none;stroke-width:0.050000mm;stroke:black"/>
<polygon points="38.482,83.726 38.482,88.426 36.957,88.426 36.957,85.196 35.232,85.196 35.232,84.275 31.932,84.275 31.932,85.196 30.207,85.196 30.207,88.426 29.382,88.426 29.382,91.226 30.207,91.226 30.207,97.495 31.932,97.495 31.932,98.476 35.232,98.476 35.232,97.495 36.957,97.495 36.957,93.025 38.482,93.025 38.482,97.726 52.482,97.726 52.482,93.025 54.007,93.025 54.007,97.495 55.732,97.495 55.732,98.476 59.032,98.476 59.032,97.495 60.757,97.495 60.757,91.226 61.582,91.226 61.582,88.426 60.757,88.426 60.757,85.196 59.032,85.196 59.032,84.275 55.732,84.275 55.732,85.196 54.007,85.196 54.007,88.426 52.482,88.426 52.482,83.726" style="fill:none;stroke-width:0.050000mm;stroke:black"/>
<polygon points="74.201,83.726 74.201,97.726 88.201,97.726 88.201,83.726" style="fill:none;stroke-width:0.050000mm;stroke:black"/>
<polygon points="93.251,83.726 93.251,97.726 107.251,97.726 107.251,83.726" style="fill:none;stroke-width:0.050000mm;stroke:black"/>
<polygon points="112.301,83.726 112.301,97.726 126.301,97.726 126.301,83.726" style="fill:none;stroke-width:0.050000mm;stroke:black"/>
<polygon points="131.351,83.726 131.351,97.726 145.351,97.726 145.351,83.726" style="fill:none;stroke-width:0.050000mm;stroke:black"/>
<polygon points="150.401,83.726 150.401,97.726 164.401,97.726 164.401,83.726" style="fill:none;stroke-width:0.050000mm;stroke:black"/>
<polygon points="169.451,83.726 169.451,97.726 183.451,97.726 183.451,83.726" style="fill:none;stroke-width:0.050000mm;stroke:black"/>
<polygon points="21.813,64.676 21.813,78.676 35.813,78.676 35.813,64.676" style="fill:none;stroke-width:0.050000mm;stroke:black"/>
<polygon points="40.863,64.676 40.863,78.676 54.863,78.676 54.863,64.676" style="fill:none;stroke-width:0.050000mm;stroke:black"/>
<polygon points="59.913,64.676 59.913,78.676 73.913,78.676 73.913,64.676" style="fill:none;stroke-width:0.050000mm;stroke:black"/>
<polygon points="78.963,64.676 78.963,78.676 92.963,78.676 92.963,64.676" style="fill:none;stroke-width:0.050000mm;stroke:black"/>
<polygon points="98.013,64.676 98.013,78.676 112.013,78.676 112.013,64.676" style="fill:none;stroke-width:0.050000mm;stroke:black"/>
<polygon points="124.207,64.676 124.207,78.676 138.207,78.676 138.207,64.676" style="fill:none;stroke-width:0.050000mm;stroke:black"/>
<polygon points="150.400,64.676 150.400,78.676 164.400,78.676 164.400,64.676" style="fill:none;stroke-width:0.050000mm;stroke:black"/>
<polygon points="169.451,64.676 169.451,78.676 183.451,78.676 183.451,64.676" style="fill:none;stroke-width:0.050000mm;stroke:black"/>
<polygon points="138.494,45.626 138.494,50.326 136.969,50.326 136.969,47.096 135.244,47.096 135.244,46.176 131.944,46.176 131.944,47.096 130.218,47.096 130.218,50.326 129.394,50.326 129.394,53.126 130.218,53.126 130.218,59.395 131.944,59.395 131.944,60.376 135.244,60.376 135.244,59.395 136.969,59.395 136.969,54.926 138.494,54.926 138.494,59.626 152.494,59.626 152.494,54.926 154.019,54.926 154.019,59.395 155.744,59.395 155.744,60.376 159.044,60.376 159.044,59.395 160.769,59.395 160.769,53.126 161.594,53.126 161.594,50.326 160.769,50.326 160.769,47.096 159.044,47.096 159.044,46.176 155.744,46.176 155.744,47.096 154.019,47.096 154.019,50.326 152.494,50.326 152.494,45.626" style="fill:none;stroke-width:0.050000mm;stroke:black"/>
<polygon points="12.288,45.626 12.288,59.626 26.288,59.626 26.288,45.626" style="fill:none;stroke-width:0.050000mm;stroke:black"/>
<polygon points="31.338,45.626 31.338,59.626 45.338,59.626 45.338,45.626" style="fill:none;stroke-width:0.050000mm;stroke:black"/>
<polygon points="50.388,45.626 50.388,59.626 64.388,59.626 64.388,45.626" style="fill:none;stroke-width:0.050000mm;stroke:black"/>
<polygon points="69.438,45.626 69.438,59.626 83.438,59.626 83.438,45.626" style="fill:none;stroke-width:0.050000mm;stroke:black"/>
<polygon points="88.488,45.626 88.488,59.626 102.488,59.626 102.488,45.626" style="fill:none;stroke-width:0.050000mm;stroke:black"/>
<polygon points="107.538,45.626 107.538,59.626 121.538,59.626 121.538,45.626" style="fill:none;stroke-width:0.050000mm;stroke:black"/>
<polygon points="169.451,45.626 169.451,59.626 183.451,59.626 183.451,45.626" style="fill:none;stroke-width:0.050000mm;stroke:black"/>
<polygon points="7.526,26.576 7.526,40.576 21.526,40.576 21.526,26.576" style="fill:none;stroke-width:0.050000mm;stroke:black"/>
<polygon points="26.576,26.576 26.576,40.576 40.576,40.576 40.576,26.576" style="fill:none;stroke-width:0.050000mm;stroke:black"/>
<polygon points="45.626,26.576 45.626,40.576 59.626,40.576 59.626,26.576" style="fill:none;stroke-width:0.050000mm;stroke:black"/>
<polygon points="64.676,26.576 64.676,40.576 78.676,40.576 78.676,26.576" style="fill:none;stroke-width:0.050000mm;stroke:black"/>
<polygon points="83.726,26.576 83.726,40.576 97.726,40.576 97.726,26.576" style="fill:none;stroke-width:0.050000mm;stroke:black"/>
<polygon points="102.775,26.576 102.775,40.576 116.775,40.576 116.775,26.576" style="fill:none;stroke-width:0.050000mm;stroke:black"/>
<polygon points="121.825,26.576 121.825,40.576 135.826,40.576 135.826,26.576" style="fill:none;stroke-width:0.050000mm;stroke:black"/>
<polygon points="145.638,26.576 145.638,40.576 159.638,40.576 159.638,26.576" style="fill:none;stroke-width:0.050000mm;stroke:black"/>
<polygon points="169.451,26.576 169.451,40.576 183.451,40.576 183.451,26.576" style="fill:none;stroke-width:0.050000mm;stroke:black"/>
<polygon points="140.876,7.526 140.876,12.226 139.351,12.226 139.351,8.996 137.626,8.996 137.626,8.075 134.326,8.075 134.326,8.996 132.601,8.996 132.601,12.226 131.776,12.226 131.776,15.026 132.601,15.026 132.601,21.296 134.326,21.296 134.326,22.276 137.626,22.276 137.626,21.296 139.351,21.296 139.351,16.826 140.876,16.826 140.876,21.526 154.876,21.526 154.876,16.826 156.401,16.826 156.401,21.296 158.126,21.296 158.126,22.276 161.426,22.276 161.426,21.296 163.151,21.296 163.151,15.026 163.976,15.026 163.976,12.226 163.151,12.226 163.151,8.996 161.426,8.996 161.426,8.075 158.126,8.075 158.126,8.996 156.401,8.996 156.401,12.226 154.876,12.226 154.876,7.526" style="fill:none;stroke-width:0.050000mm;stroke:black"/>
<polygon points="17.051,7.526 17.051,21.526 31.051,21.526 31.051,7.526" style="fill:none;stroke-width:0.050000mm;stroke:black"/>
<polygon points="36.101,7.526 36.101,21.526 50.101,21.526 50.101,7.526" style="fill:none;stroke-width:0.050000mm;stroke:black"/>
<polygon points="55.151,7.526 55.151,21.526 69.151,21.526 69.151,7.526" style="fill:none;stroke-width:0.050000mm;stroke:black"/>
<polygon points="74.201,7.526 74.201,21.526 88.201,21.526 88.201,7.526" style="fill:none;stroke-width:0.050000mm;stroke:black"/>
<polygon points="93.251,7.526 93.251,21.526 107.251,21.526 107.251,7.526" style="fill:none;stroke-width:0.050000mm;stroke:black"/>
<polygon points="112.301,7.526 112.301,21.526 126.301,21.526 126.301,7.526" style="fill:none;stroke-width:0.050000mm;stroke:black"/>
<polygon points="169.451,7.526 169.451,21.526 183.451,21.526 183.451,7.526" style="fill:none;stroke-width:0.050000mm;stroke:black"/>
</svg>
